Exact Audio Copy V0.99 prebeta 4 from 23. January 2008

EAC extraction logfile from 20. April 2009, 16:07

VA / The Lab 01 Mixed by Loco Dice

Used drive  : PLEXTOR DVDR   PX-820SA   Adapter: 0  ID: 1

Read mode               : Secure
Utilize accurate stream : Yes
Defeat audio cache      : Yes
Make use of C2 pointers : No

Read offset correction                      : 48
Overread into Lead-In and Lead-Out          : No
Fill up missing offset samples with silence : Yes
Delete leading and trailing silent blocks   : No
Null samples used in CRC calculations       : Yes
Used interface                              : Native Win32 interface for Win NT & 2000
Gap handling                                : Appended to previous track

Used output format              : User Defined Encoder
Selected bitrate                : 320 kBit/s
Quality                         : High
Add ID3 tag                     : No
Command line compressor         : C:Program Files (x86)Exact Audio CopyFlacflac.exe
Additional command line options : -V -8 -T "artist=%a" -T "title=%t" -T "album=%g" -T "date=%y" -T "tracknumber=%n" -T "genre=%m" %s


TOC of the extracted CD

     Track |   Start  |  Length  | Start sector | End sector 
    ---------------------------------------------------------
        1  |  0:00.00 |  4:46.18 |         0    |    21467   
        2  |  4:46.18 |  4:20.69 |     21468    |    41036   
        3  |  9:07.12 |  5:54.21 |     41037    |    67607   
        4  | 15:01.33 |  4:13.30 |     67608    |    86612   
        5  | 19:14.63 |  4:34.17 |     86613    |   107179   
        6  | 23:49.05 |  6:38.15 |    107180    |   137044   
        7  | 30:27.20 |  6:20.35 |    137045    |   165579   
        8  | 36:47.55 |  4:07.47 |    165580    |   184151   
        9  | 40:55.27 |  6:25.55 |    184152    |   213081   
       10  | 47:21.07 |  6:05.51 |    213082    |   240507   
       11  | 53:26.58 |  4:23.67 |    240508    |   260299   
       12  | 57:50.50 |  4:39.71 |    260300    |   281295   
       13  | 62:30.46 |  6:03.60 |    281296    |   308580   
       14  | 68:34.31 |  8:05.61 |    308581    |   345016   


Track  1

     Filename C:MusicVA - The Lab 01 Mixed by Loco Dice 1-Akiko Kiyama - Hakobi (0801).wav

     Pre-gap length  0:00:02.00

     Peak level 97.7 %
     Track quality 99.9 %
     Test CRC EB17D68B
     Copy CRC EB17D68B
     Track not present in AccurateRip database
     Copy OK

Track  2

     Filename C:MusicVA - The Lab 01 Mixed by Loco Dice 2-Second Hand Sattelites - Orbit 1.3.wav

     Peak level 97.7 %
     Track quality 100.0 %
     Test CRC B0DF64AE
     Copy CRC B0DF64AE
     Track not present in AccurateRip database
     Copy OK

Track  3

     Filename C:MusicVA - The Lab 01 Mixed by Loco Dice 3-Chaton - +91 Ahead (Session 1.5).wav

     Peak level 97.7 %
     Track quality 100.0 %
     Test CRC 49468B0B
     Copy CRC 49468B0B
     Track not present in AccurateRip database
     Copy OK

Track  4

     Filename C:MusicVA - The Lab 01 Mixed by Loco Dice 4-Chris Lattner - African Children.wav

     Peak level 97.7 %
     Track quality 100.0 %
     Test CRC 1C45C56F
     Copy CRC 1C45C56F
     Track not present in AccurateRip database
     Copy OK

Track  5

     Filename C:MusicVA - The Lab 01 Mixed by Loco Dice 5-Robert Diaz - Klondike.wav

     Peak level 97.7 %
     Track quality 100.0 %
     Test CRC B47C1D28
     Copy CRC B47C1D28
     Track not present in AccurateRip database
     Copy OK

Track  6

     Filename C:MusicVA - The Lab 01 Mixed by Loco Dice 6-Onur Ozur - Eclipse (Loco Dice Remix).wav

     Peak level 97.7 %
     Track quality 100.0 %
     Test CRC AF6F72D8
     Copy CRC AF6F72D8
     Track not present in AccurateRip database
     Copy OK

Track  7

     Filename C:MusicVA - The Lab 01 Mixed by Loco Dice 7-Kerri Chndler - Pong (Ben Klock's Bones and Strings Dub).wav

     Peak level 97.7 %
     Track quality 100.0 %
     Test CRC DFD2412B
     Copy CRC DFD2412B
     Track not present in AccurateRip database
     Copy OK

Track  8

     Filename C:MusicVA - The Lab 01 Mixed by Loco Dice 8-MHM 1 - Bubububadub.wav

     Peak level 97.7 %
     Track quality 100.0 %
     Test CRC 3FCE78F7
     Copy CRC 3FCE78F7
     Track not present in AccurateRip database
     Copy OK

Track  9

     Filename C:MusicVA - The Lab 01 Mixed by Loco Dice 9-Ion Ludwig - Transnoir.wav

     Peak level 97.7 %
     Track quality 100.0 %
     Test CRC 9636E70A
     Copy CRC 9636E70A
     Track not present in AccurateRip database
     Copy OK

Track 10

     Filename C:MusicVA - The Lab 01 Mixed by Loco Dice10-Damian Schwartz & Guti - Salon.wav

     Peak level 97.7 %
     Track quality 100.0 %
     Test CRC 96B3E840
     Copy CRC 96B3E840
     Track not present in AccurateRip database
     Copy OK

Track 11

     Filename C:MusicVA - The Lab 01 Mixed by Loco Dice11-Terrence Dixon - Below Radar (Rhythm is Rihythm Remix by Mathias Kaden).wav

     Peak level 97.7 %
     Track quality 100.0 %
     Test CRC 26D09A2C
     Copy CRC 26D09A2C
     Track not present in AccurateRip database
     Copy OK

Track 12

     Filename C:MusicVA - The Lab 01 Mixed by Loco Dice12-Someone Elese - You Don't Got Me.wav

     Peak level 97.7 %
     Track quality 100.0 %
     Test CRC 9A4F87B5
     Copy CRC 9A4F87B5
     Track not present in AccurateRip database
     Copy OK

Track 13

     Filename C:MusicVA - The Lab 01 Mixed by Loco Dice13-Alex Flatner Feat Lpazz - Perfect Circles (Damian Schwartz Remix).wav

     Peak level 97.7 %
     Track quality 100.0 %
     Test CRC 033C456A
     Copy CRC 033C456A
     Track not present in AccurateRip database
     Copy OK

Track 14

     Filename C:MusicVA - The Lab 01 Mixed by Loco Dice14-Mirko Loko - Serena.wav

     Peak level 97.7 %
     Track quality 99.9 %
     Test CRC 2D61C593
     Copy CRC 2D61C593
     Track not present in AccurateRip database
     Copy OK


None of the tracks are present in the AccurateRip database

No errors occurred

End of status report


Exact Audio Copy V0.99 prebeta 4 from 23. January 2008

EAC extraction logfile from 20. April 2009, 17:27

VA / The Lab 01 Mixed by Loco Dice

Used drive  : PLEXTOR DVDR   PX-820SA   Adapter: 0  ID: 1

Read mode               : Secure
Utilize accurate stream : Yes
Defeat audio cache      : Yes
Make use of C2 pointers : No

Read offset correction                      : 48
Overread into Lead-In and Lead-Out          : No
Fill up missing offset samples with silence : Yes
Delete leading and trailing silent blocks   : No
Null samples used in CRC calculations       : Yes
Used interface                              : Native Win32 interface for Win NT & 2000
Gap handling                                : Appended to previous track

Used output format              : User Defined Encoder
Selected bitrate                : 320 kBit/s
Quality                         : High
Add ID3 tag                     : No
Command line compressor         : C:Program Files (x86)Exact Audio CopyFlacflac.exe
Additional command line options : -V -8 -T "artist=%a" -T "title=%t" -T "album=%g" -T "date=%y" -T "tracknumber=%n" -T "genre=%m" %s


TOC of the extracted CD

     Track |   Start  |  Length  | Start sector | End sector 
    ---------------------------------------------------------
        1  |  0:00.00 |  8:07.00 |         0    |    36524   
        2  |  8:07.00 |  5:41.39 |     36525    |    62138   
        3  | 13:48.39 |  6:11.59 |     62139    |    90022   
        4  | 20:00.23 |  5:45.17 |     90023    |   115914   
        5  | 25:45.40 |  5:31.69 |    115915    |   140808   
        6  | 31:17.34 |  5:09.29 |    140809    |   164012   
        7  | 36:26.63 |  6:09.49 |    164013    |   191736   
        8  | 42:36.37 |  3:23.05 |    191737    |   206966   
        9  | 45:59.42 |  7:38.34 |    206967    |   241350   
       10  | 53:38.01 |  6:12.35 |    241351    |   269285   
       11  | 59:50.36 |  6:02.65 |    269286    |   296500   
       12  | 65:53.26 |  6:02.05 |    296501    |   323655   
       13  | 71:55.31 |  6:07.05 |    323656    |   351185   


Track  1

     Filename C:MusicVA - The Lab 01 Mixed by Loco Dice 1-Nick Holder - Inside Your Soul (Sirus Remix).wav

     Pre-gap length  0:00:02.00

     Peak level 97.7 %
     Track quality 100.0 %
     Test CRC 3E235F7D
     Copy CRC 3E235F7D
     Track not present in AccurateRip database
     Copy OK

Track  2

     Filename C:MusicVA - The Lab 01 Mixed by Loco Dice 2-Jay Haze - Mama Coca.wav

     Peak level 97.7 %
     Track quality 100.0 %
     Test CRC FF7BF72D
     Copy CRC FF7BF72D
     Track not present in AccurateRip database
     Copy OK

Track  3

     Filename C:MusicVA - The Lab 01 Mixed by Loco Dice 3-Terry Lee Brown Jr In A Deep Session With The Timewriter - Everyday.wav

     Peak level 97.7 %
     Track quality 100.0 %
     Test CRC 691B8821
     Copy CRC 691B8821
     Track not present in AccurateRip database
     Copy OK

Track  4

     Filename C:MusicVA - The Lab 01 Mixed by Loco Dice 4-Loco Dice - Black Truffles In The Snow (Mike Huckaby's The Jazzed Out SYNTH Remix).wav

     Peak level 97.7 %
     Track quality 100.0 %
     Test CRC A3E855BC
     Copy CRC A3E855BC
     Track not present in AccurateRip database
     Copy OK

Track  5

     Filename C:MusicVA - The Lab 01 Mixed by Loco Dice 5-DJ Ali - You Don't Know (Ruff Cut).wav

     Peak level 97.7 %
     Track quality 100.0 %
     Test CRC 3625CF9B
     Copy CRC 3625CF9B
     Track not present in AccurateRip database
     Copy OK

Track  6

     Filename C:MusicVA - The Lab 01 Mixed by Loco Dice 6-Alix Alvarez - Boom Bip.wav

     Peak level 97.7 %
     Track quality 100.0 %
     Test CRC 8D077A4C
     Copy CRC 8D077A4C
     Track not present in AccurateRip database
     Copy OK

Track  7

     Filename C:MusicVA - The Lab 01 Mixed by Loco Dice 7-Joseph Malik - Believe And See (Plastic Avengers Remix).wav

     Peak level 97.7 %
     Track quality 100.0 %
     Test CRC 08C108EF
     Copy CRC 08C108EF
     Track not present in AccurateRip database
     Copy OK

Track  8

     Filename C:MusicVA - The Lab 01 Mixed by Loco Dice 8-Franck Roger - Take Off (Matt That's House Bonus Beat).wav

     Peak level 97.7 %
     Track quality 100.0 %
     Test CRC 4A52ACF6
     Copy CRC 4A52ACF6
     Track not present in AccurateRip database
     Copy OK

Track  9

     Filename C:MusicVA - The Lab 01 Mixed by Loco Dice 9-95 North - Forever Underground (Bass Dub).wav

     Peak level 97.7 %
     Track quality 100.0 %
     Test CRC A5BDBD3D
     Copy CRC A5BDBD3D
     Track not present in AccurateRip database
     Copy OK

Track 10

     Filename C:MusicVA - The Lab 01 Mixed by Loco Dice10-Audio Soul Project - Song For Fred.wav

     Peak level 97.7 %
     Track quality 100.0 %
     Test CRC 8893D5DB
     Copy CRC 8893D5DB
     Track not present in AccurateRip database
     Copy OK

Track 11

     Filename C:MusicVA - The Lab 01 Mixed by Loco Dice11-Sascha Dive - Deepest America (Samuel Davis Dark Soul Mix).wav

     Peak level 97.7 %
     Track quality 100.0 %
     Test CRC BDAE3554
     Copy CRC BDAE3554
     Track not present in AccurateRip database
     Copy OK

Track 12

     Filename C:MusicVA - The Lab 01 Mixed by Loco Dice12-Daso & Pawas - Det.wav

     Peak level 97.7 %
     Track quality 100.0 %
     Test CRC EA06840D
     Copy CRC EA06840D
     Track not present in AccurateRip database
     Copy OK

Track 13

     Filename C:MusicVA - The Lab 01 Mixed by Loco Dice13-Tyree Cooper - Love.wav

     Peak level 97.7 %
     Track quality 100.0 %
     Test CRC 7E48C4B0
     Copy CRC 7E48C4B0
     Track not present in AccurateRip database
     Copy OK


None of the tracks are present in the AccurateRip database

No errors occurred

End of status report
